<svg width="43" height="25" viewBox="0 0 43 25" fill="none" xmlns="http://www.w3.org/2000/svg">
<path d="M43 6.39444C42.9967 6.3827 42.9967 6.37058 43 6.35884C42.9972 6.34857 42.9972 6.33796 43 6.32768V6.28764L42.9653 6.22093C42.9511 6.20271 42.9336 6.18619 42.9132 6.17197L42.8611 6.13637H42.8322L40.5521 5.02846L38.3993 4.00507C38.3495 3.97471 38.2925 3.95201 38.2315 3.93832H38.1852C38.1335 3.93169 38.0807 3.93169 38.0289 3.93832H37.9711C37.9038 3.94976 37.8394 3.96929 37.7801 3.99615L33.4572 6.06517L33.4051 6.09633L33.353 6.13193L33.2952 6.16305L33.2662 6.18977L33.2315 6.25649V6.32324C33.2259 6.35274 33.2259 6.38274 33.2315 6.41224V10.2966C33.2313 10.3722 33.2562 10.4466 33.3038 10.5128C33.3514 10.579 33.4201 10.6348 33.5035 10.6748L37.8438 12.7394L37.9306 12.7661H37.9769C38.0748 12.79 38.1799 12.79 38.2778 12.7661H38.3241L38.4109 12.7394L42.7164 10.706C42.7998 10.6659 42.8686 10.6101 42.9161 10.544C42.9638 10.4778 42.9886 10.4034 42.9884 10.3278V6.4434C42.9884 6.4434 43 6.41224 43 6.39444ZM38.0868 4.90387L39.1169 5.39329L35.882 6.93281L34.8461 6.4434L38.0868 4.90387ZM37.5081 11.5781L34.3253 10.0831V7.23984L37.5081 8.75265V11.5781ZM38.0868 7.96956L36.9815 7.45787L40.2164 5.9139L41.3275 6.4434L38.0868 7.96956ZM41.8484 10.0697L38.6655 11.5914V8.75265L41.8484 7.23984V10.0697Z" fill="white"/>
<path d="M31.2744 8.78142C31.2744 8.31593 31.0942 7.86954 30.7734 7.54057C30.4526 7.21145 30.0175 7.02645 29.5639 7.02645H9.73882L13.6731 3.0079C13.995 2.67744 14.1761 2.22926 14.1761 1.76198C14.1761 1.29471 13.995 0.846528 13.6731 0.516063C13.3509 0.185598 12.9141 0 12.4585 0C12.0028 0 11.5661 0.185598 11.244 0.516063L4.40193 7.5355C4.1646 7.78226 4.00375 8.09557 3.93977 8.43603C3.87592 8.77634 3.9117 9.12859 4.04273 9.44817C4.171 9.76863 4.38899 10.0429 4.66894 10.2367C4.94903 10.4302 5.27871 10.5344 5.6164 10.5362H29.5639C30.0175 10.5362 30.4526 10.3512 30.7734 10.0223C31.0942 9.69314 31.2744 9.24675 31.2744 8.78142ZM37.9796 15.134C37.8513 14.8135 37.6335 14.5391 37.3534 14.3455C37.0734 14.152 36.7436 14.0477 36.4059 14.0459H12.4585C12.0049 14.0459 11.5697 14.2309 11.2489 14.5599C10.9281 14.889 10.7479 15.3354 10.7479 15.8007C10.7479 16.2662 10.9281 16.7126 11.2489 17.0415C11.5697 17.3707 12.0049 17.5555 12.4585 17.5555H32.2835L28.3494 21.5742C28.189 21.7374 28.0618 21.9314 27.9749 22.1452C27.8883 22.3591 27.8433 22.5884 27.8433 22.8201C27.8433 23.0518 27.8883 23.2811 27.9749 23.4949C28.0618 23.7087 28.189 23.9028 28.3494 24.0661C28.5084 24.2305 28.6976 24.361 28.906 24.4502C29.1145 24.5393 29.338 24.5851 29.5639 24.5851C29.7897 24.5851 30.0132 24.5393 30.2216 24.4502C30.4302 24.361 30.6194 24.2305 30.7783 24.0661L37.6204 17.0466C37.8579 16.7999 38.0187 16.4865 38.0824 16.1461C38.1464 15.8056 38.1106 15.4534 37.9796 15.134Z" fill="white"/>
<path d="M3.87878 15.8202H5.60268C5.71699 15.8202 5.82664 15.7745 5.90744 15.6932C5.98825 15.6118 6.03366 15.5015 6.03366 15.3865C6.03366 15.2715 5.98825 15.1612 5.90744 15.0798C5.82664 14.9985 5.71699 14.9528 5.60268 14.9528H4.74073V14.5191C4.74073 14.4041 4.69533 14.2938 4.61452 14.2125C4.53371 14.1312 4.42406 14.0855 4.30976 14.0855C4.19545 14.0855 4.08584 14.1312 4.00503 14.2125C3.92422 14.2938 3.87878 14.4041 3.87878 14.5191V14.9528C3.53591 14.9528 3.20703 15.0899 2.96453 15.3339C2.72207 15.5779 2.58585 15.9088 2.58585 16.2539C2.58585 16.5989 2.72207 16.9298 2.96453 17.1739C3.20703 17.4178 3.53591 17.5549 3.87878 17.5549H4.74073C4.85504 17.5549 4.96469 17.6006 5.04549 17.682C5.1263 17.7633 5.17171 17.8736 5.17171 17.9886C5.17171 18.1036 5.1263 18.214 5.04549 18.2953C4.96469 18.3766 4.85504 18.4223 4.74073 18.4223H3.01683C2.90253 18.4223 2.79291 18.468 2.71207 18.5493C2.63126 18.6306 2.58585 18.7409 2.58585 18.856C2.58585 18.971 2.63126 19.0813 2.71207 19.1626C2.79291 19.2439 2.90253 19.2896 3.01683 19.2896H3.87878V19.7233C3.87878 19.8383 3.92422 19.9487 4.00503 20.03C4.08584 20.1113 4.19545 20.157 4.30976 20.157C4.42406 20.157 4.53371 20.1113 4.61452 20.03C4.69533 19.9487 4.74073 19.8383 4.74073 19.7233V19.2896C5.08361 19.2896 5.41248 19.1526 5.65498 18.9086C5.89744 18.6646 6.03366 18.3336 6.03366 17.9886C6.03366 17.6436 5.89744 17.3126 5.65498 17.0686C5.41248 16.8246 5.08361 16.6876 4.74073 16.6876H3.87878C3.76448 16.6876 3.65486 16.6419 3.57406 16.5605C3.49325 16.4792 3.44781 16.3689 3.44781 16.2539C3.44781 16.1389 3.49325 16.0286 3.57406 15.9472C3.65486 15.8659 3.76448 15.8202 3.87878 15.8202ZM7.32659 12.7844H1.29293C0.950015 12.7844 0.621177 12.9215 0.378679 13.1655C0.136219 13.4095 0 13.7404 0 14.0855V20.157C0 20.502 0.136219 20.833 0.378679 21.077C0.621177 21.321 0.950015 21.458 1.29293 21.458H7.32659C7.66946 21.458 7.99834 21.321 8.24083 21.077C8.48329 20.833 8.61951 20.502 8.61951 20.157V14.0855C8.61951 13.7404 8.48329 13.4095 8.24083 13.1655C7.99834 12.9215 7.66946 12.7844 7.32659 12.7844ZM7.75756 20.157C7.75756 20.272 7.71215 20.3824 7.63135 20.4637C7.55054 20.545 7.44089 20.5907 7.32659 20.5907H1.29293C1.17862 20.5907 1.06901 20.545 0.988166 20.4637C0.907358 20.3824 0.861951 20.272 0.861951 20.157V14.0855C0.861951 13.9704 0.907358 13.8601 0.988166 13.7788C1.06901 13.6975 1.17862 13.6518 1.29293 13.6518H7.32659C7.44089 13.6518 7.5505 13.6975 7.63135 13.7788C7.71215 13.8601 7.75756 13.9704 7.75756 14.0855V20.157Z" fill="white"/>
</svg>
