<svg width="32" height="32" viewBox="0 0 32 32" fill="none" xmlns="http://www.w3.org/2000/svg">
<path d="M20.4961 16.448C21.5088 15.3603 22.0793 13.9341 22.0961 12.448C22.0961 10.8439 21.4589 9.30558 20.3246 8.17143C19.1903 7.03714 17.652 6.4 16.048 6.4C14.4439 6.4 12.9056 7.03714 11.7714 8.17143C10.6371 9.30558 10 10.8439 10 12.448C10.0167 13.9341 10.5872 15.3603 11.6 16.448C10.1898 17.1502 8.97633 18.1918 8.06871 19.4793C7.16095 20.7669 6.58762 22.2599 6.4 23.8239C6.35333 24.2483 6.47714 24.6739 6.74422 25.0069C7.01129 25.34 7.39959 25.5533 7.82395 25.6C8.2483 25.6467 8.67388 25.5229 9.00694 25.2558C9.34 24.9888 9.55333 24.6003 9.6 24.1761C9.79088 22.6257 10.5422 21.199 11.7121 20.1644C12.882 19.1297 14.3901 18.5584 15.952 18.5584C17.5139 18.5584 19.0219 19.1297 20.1918 20.1644C21.3619 21.199 22.1131 22.6257 22.3039 24.1761C22.3484 24.5863 22.5498 24.9635 22.8657 25.2288C23.1819 25.4943 23.5882 25.6272 24 25.6H24.1761C24.5954 25.5517 24.9788 25.3397 25.2426 25.0101C25.5063 24.6803 25.629 24.2599 25.5839 23.84C25.4103 22.2842 24.8551 20.7952 23.9673 19.5056C23.0797 18.2162 21.8873 17.1657 20.4961 16.448ZM16 15.2961C15.4366 15.2961 14.8861 15.129 14.4178 14.8161C13.9494 14.503 13.5844 14.0582 13.3688 13.538C13.1533 13.0174 13.0967 12.4449 13.2067 11.8924C13.3166 11.3399 13.5879 10.8325 13.9863 10.4341C14.3845 10.0359 14.892 9.76463 15.4444 9.65469C15.9967 9.5449 16.5694 9.60122 17.0899 9.81674C17.6102 10.0324 18.0551 10.3974 18.368 10.8657C18.681 11.3342 18.848 11.8848 18.848 12.448C18.848 13.2034 18.548 13.9278 18.0137 14.4619C17.4797 14.9961 16.7554 15.2961 16 15.2961ZM27.2 0H4.8C3.52694 0 2.30612 0.505714 1.40585 1.40585C0.505714 2.30612 0 3.52694 0 4.8V27.2C0 28.4729 0.505714 29.6939 1.40585 30.5942C2.30612 31.4943 3.52694 32 4.8 32H27.2C28.4729 32 29.6939 31.4943 30.5942 30.5942C31.4943 29.6939 32 28.4729 32 27.2V4.8C32 3.52694 31.4943 2.30612 30.5942 1.40585C29.6939 0.505714 28.4729 0 27.2 0ZM28.8 27.2C28.8 27.6244 28.6314 28.0314 28.3314 28.3314C28.0314 28.6314 27.6244 28.8 27.2 28.8H4.8C4.37565 28.8 3.96871 28.6314 3.66857 28.3314C3.36857 28.0314 3.2 27.6244 3.2 27.2V4.8C3.2 4.37565 3.36857 3.96871 3.66857 3.66857C3.96871 3.36857 4.37565 3.2 4.8 3.2H27.2C27.6244 3.2 28.0313 3.36857 28.3314 3.66857C28.6314 3.96871 28.8 4.37565 28.8 4.8V27.2Z" fill="white"/>
</svg>
