<svg width="32" height="31" viewBox="0 0 32 31" fill="none" xmlns="http://www.w3.org/2000/svg">
<ellipse cx="25.5136" cy="18.8789" rx="1.2973" ry="1.45455" fill="#D9D9D9"/>
<path d="M2.66018 8.48672C1.88175 8.73374 1.40285 9.59773 1.59052 10.4165C1.7782 11.2353 2.56138 11.6988 3.33982 11.4518L2.66018 8.48672ZM18.9933 4.89416L19.3332 6.37668L18.9933 4.89416ZM25.6746 8.04648L27.0051 7.35205L27.0051 7.35205L25.6746 8.04648ZM3.33982 11.4518L19.3332 6.37668L18.6535 3.41165L2.66018 8.48672L3.33982 11.4518ZM24.3441 8.74092L25.1444 10.6637L27.8054 9.2748L27.0051 7.35205L24.3441 8.74092ZM19.3332 6.37668C21.3892 5.72425 23.5038 6.72195 24.3441 8.74092L27.0051 7.35205C25.6046 3.98709 22.0803 2.32426 18.6535 3.41165L19.3332 6.37668Z" fill="white"/>
<rect x="1.5" y="9.22729" width="29" height="20.2727" rx="4.5" stroke="white" stroke-width="3"/>
</svg>
