<svg width="32" height="32" viewBox="0 0 32 32" fill="none" xmlns="http://www.w3.org/2000/svg">
<path d="M16.0001 3.33325C16.5137 3.33351 17.0075 3.53135 17.3793 3.8858C17.751 4.24024 17.9721 4.72411 17.9968 5.23714C18.0215 5.75017 17.8478 6.25303 17.5118 6.64152C17.1759 7.03001 16.7033 7.27436 16.1921 7.32392L16.0001 7.33325H9.33341C9.17738 7.3332 9.02627 7.38788 8.9064 7.48777C8.78653 7.58766 8.7055 7.72643 8.67741 7.87992L8.66675 7.99992V23.9999C8.6667 24.156 8.72138 24.3071 8.82127 24.4269C8.92116 24.5468 9.05993 24.6278 9.21341 24.6559L9.33341 24.6666H15.3334C15.847 24.6668 16.3409 24.8647 16.7126 25.2191C17.0843 25.5736 17.3054 26.0574 17.3301 26.5705C17.3548 27.0835 17.1812 27.5864 16.8452 27.9749C16.5092 28.3633 16.0366 28.6077 15.5254 28.6573L15.3334 28.6666H9.33341C8.13999 28.6667 6.99189 28.2095 6.12514 27.3892C5.25839 26.5688 4.73888 25.4475 4.67341 24.2559L4.66675 23.9999V7.99992C4.66666 6.8065 5.12379 5.65839 5.94416 4.79164C6.76453 3.9249 7.88579 3.40539 9.07741 3.33992L9.33341 3.33325H16.0001ZM18.5867 10.8133C18.9491 10.4496 19.4375 10.2392 19.9507 10.2256C20.4639 10.2121 20.9627 10.3964 21.3438 10.7404C21.7249 11.0845 21.959 11.5619 21.9978 12.0739C22.0366 12.5858 21.877 13.0931 21.5521 13.4906L21.4147 13.6426L21.0574 13.9999H26.6667C27.1804 14.0002 27.6742 14.198 28.0459 14.5525C28.4177 14.9069 28.6388 15.3908 28.6634 15.9038C28.6881 16.4168 28.5145 16.9197 28.1785 17.3082C27.8425 17.6967 27.37 17.941 26.8587 17.9906L26.6667 17.9999H21.0574L21.4147 18.3573C21.7784 18.7196 21.9888 19.208 22.0024 19.7212C22.0159 20.2344 21.8316 20.7332 21.4876 21.1143C21.1435 21.4954 20.6661 21.7295 20.1541 21.7683C19.6422 21.8071 19.1349 21.6475 18.7374 21.3226L18.5854 21.1853L14.8147 17.4146C14.4644 17.0645 14.2565 16.5969 14.2311 16.1023C14.2057 15.6077 14.3648 15.1213 14.6774 14.7373L14.8147 14.5853L18.5854 10.8146L18.5867 10.8133Z" fill="white"/>
</svg>
