<svg width="30" height="31" viewBox="0 0 30 31" fill="none" xmlns="http://www.w3.org/2000/svg">
<path fill-rule="evenodd" clip-rule="evenodd" d="M0.142822 8.14282V10.4285C0.142822 13.5844 2.7012 16.1428 5.85711 16.1428C7.72637 16.1428 9.386 15.2453 10.4285 13.8577C11.4711 15.2453 13.1306 16.1428 14.9999 16.1428C16.8691 16.1428 18.5287 15.2453 19.5712 13.8577C20.6138 15.2453 22.2733 16.1428 24.1426 16.1428C27.2985 16.1428 29.8569 13.5844 29.8569 10.4285V8.14282C29.8569 7.97155 29.8192 7.80909 29.7517 7.66323L27.1997 2.13462C26.6393 0.92039 25.424 0.142822 24.0868 0.142822H5.91299C4.57567 0.142822 3.3604 0.92039 2.79999 2.13462L0.248013 7.66323C0.180498 7.80909 0.142822 7.97155 0.142822 8.14282ZM2.42854 18.1428C3.21752 18.1428 3.85711 18.7824 3.85711 19.5714V27.2857H10.4285V24.2141C10.4285 21.6895 12.4752 19.6428 15 19.6428C17.5247 19.6428 19.5714 21.6895 19.5714 24.2141V27.2857H26.1428V19.5714C26.1428 18.7824 26.7824 18.1428 27.5714 18.1428C28.3604 18.1428 29 18.7824 29 19.5714V27.5714C29 28.2535 28.7291 28.9074 28.2468 29.3897C27.7645 29.872 27.1106 30.1428 26.4285 30.1428H3.57139C2.88941 30.1428 2.23535 29.872 1.75311 29.3897C1.27088 28.9074 0.999965 28.2535 0.999965 27.5714V19.5714C0.999965 18.7824 1.63955 18.1428 2.42854 18.1428Z" fill="white"/>
</svg>
