<svg width="32" height="32" viewBox="0 0 32 32" fill="none" xmlns="http://www.w3.org/2000/svg">
<g clip-path="url(#clip0_148_3)">
<path d="M21.3333 18.6667C22.2088 18.6667 23.0757 18.8392 23.8846 19.1742C24.6934 19.5093 25.4283 20.0003 26.0474 20.6194C26.6664 21.2384 27.1575 21.9734 27.4925 22.7822C27.8276 23.591 28 24.4579 28 25.3334V26.6667C28 27.374 27.719 28.0523 27.219 28.5524C26.7189 29.0525 26.0406 29.3334 25.3333 29.3334H6.66667C5.95942 29.3334 5.28115 29.0525 4.78105 28.5524C4.28095 28.0523 4 27.374 4 26.6667V25.3334C4 23.5653 4.70238 21.8696 5.95262 20.6194C7.20286 19.3691 8.89856 18.6667 10.6667 18.6667H21.3333ZM26.6667 10.6667C27.0203 10.6667 27.3594 10.8072 27.6095 11.0573C27.8595 11.3073 28 11.6465 28 12.0001V13.3334H29.3333C29.5084 13.3334 29.6818 13.3679 29.8436 13.4349C30.0053 13.5019 30.1523 13.6001 30.2761 13.7239C30.4 13.8478 30.4982 13.9947 30.5652 14.1565C30.6322 14.3183 30.6667 14.4917 30.6667 14.6667C30.6667 14.8418 30.6322 15.0152 30.5652 15.177C30.4982 15.3388 30.4 15.4857 30.2761 15.6096C30.1523 15.7334 30.0053 15.8316 29.8436 15.8986C29.6818 15.9656 29.5084 16.0001 29.3333 16.0001H28V17.3334C28 17.687 27.8595 18.0262 27.6095 18.2762C27.3594 18.5263 27.0203 18.6667 26.6667 18.6667C26.313 18.6667 25.9739 18.5263 25.7239 18.2762C25.4738 18.0262 25.3333 17.687 25.3333 17.3334V16.0001H24C23.8249 16.0001 23.6515 15.9656 23.4898 15.8986C23.328 15.8316 23.181 15.7334 23.0572 15.6096C22.9334 15.4857 22.8352 15.3388 22.7682 15.177C22.7012 15.0152 22.6667 14.8418 22.6667 14.6667C22.6667 14.4917 22.7012 14.3183 22.7682 14.1565C22.8352 13.9947 22.9334 13.8478 23.0572 13.7239C23.181 13.6001 23.328 13.5019 23.4898 13.4349C23.6515 13.3679 23.8249 13.3334 24 13.3334H25.3333V12.0001C25.3333 11.6465 25.4738 11.3073 25.7239 11.0573C25.9739 10.8072 26.313 10.6667 26.6667 10.6667ZM16 2.66675C17.7681 2.66675 19.4638 3.36913 20.714 4.61937C21.9643 5.86961 22.6667 7.5653 22.6667 9.33341C22.6667 11.1015 21.9643 12.7972 20.714 14.0475C19.4638 15.2977 17.7681 16.0001 16 16.0001C14.2319 16.0001 12.5362 15.2977 11.286 14.0475C10.0357 12.7972 9.33333 11.1015 9.33333 9.33341C9.33333 7.5653 10.0357 5.86961 11.286 4.61937C12.5362 3.36913 14.2319 2.66675 16 2.66675Z" fill="white"/>
</g>
<defs>
<clipPath id="clip0_148_3">
<rect width="32" height="32" fill="white"/>
</clipPath>
</defs>
</svg>
